<?xml version="1.0" standalone="no"?><!DOCTYPE svg PUBLIC "-//W3C//DTD SVG 1.1//EN" "http://www.w3.org/Graphics/SVG/1.1/DTD/svg11.dtd"><svg t="1576134602404" class="icon" viewBox="0 0 1024 1024" version="1.1" xmlns="http://www.w3.org/2000/svg" p-id="2452" width="64" height="64" xmlns:xlink="http://www.w3.org/1999/xlink"><defs><style type="text/css"></style></defs><path d="M632.152521 521.761318l129.829927-128.749316c7.814989-7.764847 8.016581-20.717857 0.079818-28.587082-7.700379-7.641027-20.842701-7.831362-28.829606 0.086981L603.422176 493.260194 473.614761 364.510878c-7.828292-7.765871-20.900006-7.959276-28.822442-0.086981-7.721869 7.640004-7.893784 20.669762 0.079818 28.587082l129.821741 128.749316-129.821741 128.750339c-7.822153 7.765871-8.023744 20.717857-0.079818 28.590152 7.700379 7.640004 20.835538 7.829316 28.822442-0.090051l129.807415-128.748293 129.808438 128.748293c7.835456 7.767917 20.900006 7.959276 28.829605 0.090051 7.713682-7.641027 7.893784-20.670785-0.079818-28.590152L632.152521 521.761318zM75.170027 540.719088c-15.936971-15.863293-15.714913-41.808198 0-57.44227l281.867645-280.604886c7.951089-7.913227 23.636327-14.323217 34.668591-14.323216h446.905446c67.428715 0 122.086569 54.073546 122.08657 121.749901v403.798673c0 67.242474-54.386678 121.752971-122.08657 121.752971H391.706263c-11.189853 0-26.495444-6.178723-34.668591-14.326287L75.170027 540.719088z" p-id="2453"></path></svg>